<svg width="93" height="23" viewBox="0 0 93 23" fill="none" xmlns="http://www.w3.org/2000/svg">
<g id="lun">
<circle id="Ellipse 34" cx="46.5" cy="11.5" r="11.5" fill="white"/>
<path id="Subtract" fill-rule="evenodd" clip-rule="evenodd" d="M12.5136 22.9554C9.20703 20.4964 7 16.0617 7 10.9994C7 6.53784 8.71435 2.56369 11.3849 0C5.08661 0.0617791 0 5.18659 0 11.4994C0 17.8507 5.14873 22.9994 11.5 22.9994C11.8416 22.9994 12.1796 22.9845 12.5136 22.9554Z" fill="white" fill-opacity="0.29"/>
<path id="Subtract_2" fill-rule="evenodd" clip-rule="evenodd" d="M80.0001 22.9554C83.3066 20.4964 85.5137 16.0617 85.5137 10.9994C85.5137 6.53784 83.7993 2.56369 81.1288 0C87.4271 0.0617791 92.5137 5.18659 92.5137 11.4994C92.5137 17.8507 87.3649 22.9994 81.0137 22.9994C80.6721 22.9994 80.3341 22.9845 80.0001 22.9554Z" fill="white" fill-opacity="0.29"/>
<path id="Ellipse 35" d="M63.5 23C65.0102 23 66.5056 22.7025 67.9009 22.1246C69.2961 21.5467 70.5639 20.6996 71.6317 19.6317C72.6996 18.5639 73.5467 17.2961 74.1246 15.9009C74.7025 14.5056 75 13.0102 75 11.5C75 9.9898 74.7025 8.49438 74.1246 7.09914C73.5467 5.7039 72.6996 4.43615 71.6317 3.36827C70.5639 2.3004 69.2961 1.45331 67.9009 0.875385C66.5056 0.297456 65.0102 -5.68694e-07 63.5 -5.02681e-07L63.5 11.5L63.5 23Z" fill="white" fill-opacity="0.7"/>
<path id="Ellipse 36" d="M29.5 23C27.9898 23 26.4944 22.7025 25.0991 22.1246C23.7039 21.5467 22.4361 20.6996 21.3683 19.6317C20.3004 18.5639 19.4533 17.2961 18.8754 15.9009C18.2975 14.5056 18 13.0102 18 11.5C18 9.9898 18.2975 8.49438 18.8754 7.09914C19.4533 5.7039 20.3004 4.43615 21.3683 3.36827C22.4361 2.3004 23.7039 1.45331 25.0991 0.875385C26.4944 0.297456 27.9898 -5.68694e-07 29.5 -5.02681e-07L29.5 11.5L29.5 23Z" fill="white" fill-opacity="0.7"/>
</g>
</svg>
