<svg width="30" height="30" viewBox="0 0 30 30" fill="none" xmlns="http://www.w3.org/2000/svg">
<g id="WhatsApp">
<path id="Ellipse 67" d="M13.3383 25.6628L13.124 25.6227L12.9215 25.7036L7.84779 27.7331L7.56007 24.8366L7.52714 24.5051L7.2591 24.3073C4.03734 21.9296 1.95007 18.1086 1.95007 13.8C1.95007 6.59268 7.79276 0.75 15.0001 0.75C22.2074 0.75 28.0501 6.59268 28.0501 13.8C28.0501 17.4184 26.6259 20.808 24.0992 23.0748C21.5863 25.3293 17.9275 26.5233 13.3383 25.6628Z" stroke="white" stroke-width="1.5"/>
<path id="Vector" d="M10.699 7.20145C10.6087 7.19715 10.5163 7.2036 10.4196 7.22509C9.42061 7.4464 8.42802 8.1705 8.40009 9.464C8.42802 9.64449 8.42587 9.83787 8.49247 10.0012C8.81904 10.8005 9.10264 11.6256 9.51085 12.3819C11.4982 16.0561 14.5039 18.6109 18.3346 20.2331C18.7922 20.4265 19.2649 20.4673 19.7268 20.274C20.3628 20.0097 20.902 19.6014 21.2608 19.0148C21.7528 18.2091 21.7593 17.6504 20.9493 17.0553C20.4186 16.6642 19.8966 16.2624 19.3594 15.8799C18.5409 15.2998 17.6557 15.1988 17.0455 16.2173C17.0133 16.2688 16.966 16.3118 16.9252 16.3548C16.6115 16.6878 16.227 16.7695 15.8188 16.6019C14.2697 15.9637 13.073 14.9345 12.3511 13.4025C11.9257 12.5022 12.0417 12.051 12.8367 11.4515C12.9162 11.3935 12.9914 11.3312 13.0644 11.2646C13.4125 10.9466 13.5049 10.5684 13.2986 10.1408C12.8324 9.16534 12.2115 8.29513 11.4251 7.54524C11.2124 7.34326 10.9697 7.21649 10.699 7.20145Z" fill="white"/>
</g>
</svg>
